<?xml version="1.0" encoding="UTF-8" standalone="no"?>
<svg width="129px" height="31px" viewBox="0 0 129 31" version="1.1" xmlns="http://www.w3.org/2000/svg" xmlns:xlink="http://www.w3.org/1999/xlink">
    <!-- Generator: Sketch 39.1 (31720) - http://www.bohemiancoding.com/sketch -->
    <title>boxfish</title>
    <desc>Created with Sketch.</desc>
    <defs></defs>
    <g id="Page-1" stroke="none" stroke-width="1" fill="none" fill-rule="evenodd">
        <g id="boxfish" fill="#6696DC">
            <polygon id="Shape" points="128.47 6.02 128.47 30.51 122.96 30.51 122.96 20.65 115.05 20.65 115.05 30.51 109.53 30.51 109.53 6.02 115.05 6.02 115.05 15.76 122.96 15.76 122.96 6.02"></polygon>
            <path d="M106.23,6.46 L105.669,11.09 C102.879,10.61 101.079,10.39 98.869,10.39 C96.399,10.39 95.848,10.83 95.848,12.64 C95.848,14.99 95.958,15.03 99.828,15.95 C106.448,17.53 106.778,18.82 106.778,23.63 C106.778,28.49 105.198,30.88 97.798,30.88 C94.968,30.88 91.988,30.25 89.888,29.3 L90.808,25.03 C93.058,25.73 95.338,26.21 97.878,26.21 C100.708,26.21 101.258,25.66 101.258,23.6 C101.258,21.39 101.149,21.13 97.138,20.25 C91.218,18.96 90.328,17.79 90.328,12.49 C90.328,7.6 92.057,5.65 98.798,5.65 C100.93,5.65 103.5,5.87 106.23,6.46 L106.23,6.46 Z" id="Shape"></path>
            <rect id="Rectangle-path" x="81.26" y="6.02" width="5.521" height="24.49"></rect>
            <polygon id="Shape" points="78.41 6.02 78.41 10.91 68.37 10.91 68.37 16.13 77.64 16.13 77.64 21.02 68.37 21.02 68.37 30.51 62.85 30.51 62.85 6.02"></polygon>
            <polygon id="Shape" points="52.85 18.08 60.28 30.51 54.51 30.51 49.76 22.42 45.02 30.51 39.24 30.51 46.64 18.08 39.5 6.02 45.28 6.02 49.76 13.74 54.25 6.02 60.03 6.02"></polygon>
            <path d="M39.16,13.15 L39.16,23.38 C39.16,27.09 36.59,30.88 29.67,30.88 C22.76,30.88 20.18,27.09 20.18,23.38 L20.18,13.15 C20.18,10.63 21.38,8.07 24.31,6.69 C29.22,3.88 25.09,1.13 24.75,0.91 C35.21,3.57 38.23,9.54 38.23,9.54 L38.24,9.56 C38.87,10.67 39.16,11.91 39.16,13.15 L39.16,13.15 Z M33.65,22.9 L33.65,13.63 C33.65,11.72 32.43,10.54 29.67,10.54 C26.92,10.54 25.7,11.72 25.7,13.63 L25.7,22.9 C25.7,24.81 26.92,25.99 29.67,25.99 C32.43,25.99 33.65,24.81 33.65,22.9 L33.65,22.9 Z" id="Shape"></path>
            <path d="M18.08,22.27 L18.08,24.67 C18.08,28.12 15.87,30.51 10.98,30.51 L0.53,30.51 L0.53,6.02 L10.2,6.02 C15.32,6.02 17.19,8.07 17.19,11.39 L17.19,13.89 C17.19,15.65 16.42,16.9 14.47,17.75 C16.49,18.23 18.08,19.99 18.08,22.27 L18.08,22.27 Z M12.56,23.93 L12.56,22.42 C12.56,21.06 11.71,20.36 10.24,20.36 L6.05,20.36 L6.05,26.06 L9.47,26.06 C11.2,26.06 12.56,25.69 12.56,23.93 L12.56,23.93 Z M11.68,14.33 L11.68,12.2 C11.68,11.13 11.01,10.46 9.47,10.46 L6.05,10.46 L6.05,16.06 L9.47,16.06 C10.94,16.06 11.68,15.32 11.68,14.33 L11.68,14.33 Z" id="Shape"></path>
        </g>
    </g>
</svg>